/* XPM */
static char * alephbet32_xpm[] = {
"32 32 556 2",
"  	c None",
". 	c #CA006A",
"+ 	c #C9006B",
"@ 	c #C8006B",
"# 	c #C7006A",
"$ 	c #C50069",
"% 	c #C30067",
"& 	c #C00064",
"* 	c #BC0062",
"= 	c #CC006B",
"- 	c #CB016F",
"; 	c #CA0272",
"> 	c #C80374",
", 	c #C70374",
"' 	c #C2016C",
") 	c #C10069",
"! 	c #BF0064",
"~ 	c #B80060",
"{ 	c #AD005F",
"] 	c #CB006A",
"^ 	c #CB0170",
"/ 	c #C90375",
"( 	c #C80775",
"_ 	c #C80875",
": 	c #BD016B",
"< 	c #BC0066",
"[ 	c #B90060",
"} 	c #AF005D",
"| 	c #A0005A",
"1 	c #CB006C",
"2 	c #C90273",
"3 	c #CA0E74",
"4 	c #CA0371",
"5 	c #C80773",
"6 	c #C60872",
"7 	c #C30570",
"8 	c #C1026C",
"9 	c #BB0064",
"0 	c #B0005E",
"a 	c #B80166",
"b 	c #B6005F",
"c 	c #AE005B",
"d 	c #9C0058",
"e 	c #CA006C",
"f 	c #C80B74",
"g 	c #CC1473",
"h 	c #C90371",
"i 	c #CB0F74",
"j 	c #D01C74",
"k 	c #D22374",
"l 	c #D02373",
"m 	c #CA1D70",
"n 	c #C1126E",
"o 	c #BA066C",
"p 	c #B60164",
"q 	c #A8005A",
"r 	c #B40164",
"s 	c #B2005D",
"t 	c #A90058",
"u 	c #950055",
"v 	c #C70373",
"w 	c #C80C74",
"x 	c #CC1772",
"y 	c #C70370",
"z 	c #CB1473",
"A 	c #D62876",
"B 	c #DD377D",
"C 	c #E03F82",
"D 	c #DE3D80",
"E 	c #D73379",
"F 	c #CD2571",
"G 	c #C1146D",
"H 	c #B8056B",
"I 	c #B10060",
"J 	c #9A0054",
"K 	c #B20163",
"L 	c #AD005A",
"M 	c #A20056",
"N 	c #8B0050",
"O 	c #C60068",
"P 	c #C60271",
"Q 	c #C60A73",
"R 	c #CB1672",
"S 	c #D01F72",
"T 	c #C4016A",
"U 	c #C60E72",
"V 	c #D22674",
"W 	c #DE3C7F",
"X 	c #E74D8B",
"Y 	c #EB5491",
"Z 	c #EA508F",
"` 	c #E34486",
" .	c #D9327A",
"..	c #CC1F71",
"+.	c #C00D6E",
"@.	c #B80269",
"#.	c #AC005C",
"$.	c #85004C",
"%.	c #B40167",
"&.	c #AA0058",
"*.	c #980054",
"=.	c #7F0049",
"-.	c #C20065",
";.	c #C6016D",
">.	c #C40673",
",.	c #C71271",
"'.	c #CE1E72",
").	c #C1036D",
"!.	c #C61770",
"~.	c #D53077",
"{.	c #E44787",
"].	c #EE5794",
"^.	c #F15E99",
"/.	c #EF5997",
"(.	c #E84B8D",
"_.	c #DD3881",
":.	c #D02476",
"<.	c #C41271",
"[.	c #BD036D",
"}.	c #B50060",
"|.	c #970055",
"1.	c #B50165",
"2.	c #B0005D",
"3.	c #A30057",
"4.	c #710040",
"5.	c #C20270",
"6.	c #C30B71",
"7.	c #C91870",
"8.	c #D02472",
"9.	c #B90062",
"0.	c #BC056D",
"a.	c #C51A6E",
"b.	c #D73279",
"c.	c #E54788",
"d.	c #ED5694",
"e.	c #EF5B99",
"f.	c #ED5695",
"g.	c #E6488C",
"h.	c #DC3680",
"i.	c #D02477",
"j.	c #C41173",
"k.	c #BD0470",
"l.	c #B70065",
"m.	c #A30059",
"n.	c #770046",
"o.	c #B80167",
"p.	c #B40061",
"q.	c #AA005B",
"r.	c #970056",
"s.	c #7A0047",
"t.	c #C2016A",
"u.	c #C00571",
"v.	c #C31070",
"w.	c #D02773",
"x.	c #B2005F",
"y.	c #C4186E",
"z.	c #D52C77",
"A.	c #E03E84",
"B.	c #E74A8D",
"C.	c #E94E90",
"D.	c #E7498C",
"E.	c #E23E84",
"F.	c #D92E7B",
"G.	c #CF1E75",
"H.	c #C40E72",
"I.	c #BC0370",
"J.	c #B50067",
"K.	c #A4005B",
"L.	c #7F004A",
"M.	c #BA0169",
"N.	c #B70063",
"O.	c #B0005C",
"P.	c #A00059",
"Q.	c #87004F",
"R.	c #68003C",
"S.	c #BF016C",
"T.	c #BE0770",
"U.	c #C3136E",
"V.	c #C91F6F",
"W.	c #D02973",
"X.	c #B60369",
"Y.	c #C2106E",
"Z.	c #CF2174",
"`.	c #D82F7C",
" +	c #DE3982",
".+	c #E13C83",
"++	c #E03881",
"@+	c #DC2F7C",
"#+	c #D52377",
"$+	c #CD1573",
"%+	c #C50871",
"&+	c #BD016C",
"*+	c #B20066",
"=+	c #A0005D",
"-+	c #86004C",
";+	c #BB016B",
">+	c #B90065",
",+	c #B3005E",
"'+	c #A6005A",
")+	c #900054",
"!+	c #700042",
"~+	c #BD0062",
"{+	c #BD026C",
"]+	c #BD086E",
"^+	c #C8206E",
"/+	c #D02A73",
"(+	c #9F0056",
"_+	c #BE076E",
":+	c #C61472",
"<+	c #CD1F76",
"[+	c #D32678",
"}+	c #D72879",
"|+	c #D82678",
"1+	c #D51F77",
"2+	c #D11576",
"3+	c #CB0B74",
"4+	c #C50370",
"5+	c #BC0068",
"6+	c #AD0062",
"7+	c #99005C",
"8+	c #8D0050",
"9+	c #BB016D",
"0+	c #B90067",
"a+	c #B40060",
"b+	c #AA005A",
"c+	c #7A0049",
"d+	c #AE005F",
"e+	c #BB0062",
"f+	c #BA026B",
"g+	c #BA096D",
"h+	c #BF146C",
"i+	c #C81F6F",
"j+	c #D12A74",
"k+	c #900051",
"l+	c #B1005E",
"m+	c #BC026A",
"n+	c #BF0772",
"o+	c #C40F73",
"p+	c #CA1473",
"q+	c #CE1674",
"r+	c #D01475",
"s+	c #CF0F76",
"t+	c #CD0876",
"u+	c #C90373",
"v+	c #C3016D",
"w+	c #A5005F",
"x+	c #97005C",
"y+	c #930053",
"z+	c #BA016F",
"A+	c #B80069",
"B+	c #B40062",
"C+	c #AB005C",
"D+	c #9B0056",
"E+	c #82004C",
"F+	c #67003E",
"G+	c #AC005D",
"H+	c #B90061",
"I+	c #B8026A",
"J+	c #B8086C",
"K+	c #BE126C",
"L+	c #C71D6E",
"M+	c #A20059",
"N+	c #B70062",
"O+	c #BE0370",
"P+	c #C30670",
"Q+	c #C80772",
"R+	c #CA0674",
"S+	c #CA0474",
"T+	c #C90272",
"U+	c #C5006E",
"V+	c #BE0068",
"W+	c #AF0061",
"X+	c #9F005D",
"Y+	c #9A005D",
"Z+	c #BA016E",
"`+	c #B7006A",
" @	c #B30064",
".@	c #AA005E",
"+@	c #9D0057",
"@@	c #87004D",
"#@	c #6E0043",
"$@	c #A7005B",
"%@	c #B50268",
"&@	c #B6066B",
"*@	c #BD106D",
"=@	c #C61A6E",
"-@	c #CE2372",
";@	c #D32A75",
">@	c #86004E",
",@	c #A8005B",
"'@	c #B30065",
")@	c #BD016A",
"!@	c #C5016E",
"~@	c #C2006C",
"{@	c #BC0069",
"]@	c #B20063",
"^@	c #A8005E",
"/@	c #9F005F",
"(@	c #9E005B",
"_@	c #BD026F",
":@	c #BA016D",
"<@	c #B60069",
"[@	c #B10064",
"}@	c #A8005F",
"|@	c #9C0057",
"1@	c #8A004D",
"2@	c #750046",
"3@	c #B3005D",
"4@	c #B30165",
"5@	c #B6046B",
"6@	c #BD0C6D",
"7@	c #C4156E",
"8@	c #CB1E71",
"9@	c #D12675",
"0@	c #8C0050",
"a@	c #A2005C",
"b@	c #A90063",
"c@	c #B00063",
"d@	c #B60063",
"e@	c #B80066",
"f@	c #B50065",
"g@	c #B00062",
"h@	c #AC0060",
"i@	c #A00060",
"j@	c #BE026E",
"k@	c #BA016B",
"l@	c #AE0064",
"m@	c #A50060",
"n@	c #9A0058",
"o@	c #8C004D",
"p@	c #7B0049",
"q@	c #AE005A",
"r@	c #B6036A",
"s@	c #BB086D",
"t@	c #C81870",
"u@	c #CC1F73",
"v@	c #8D004F",
"w@	c #970059",
"x@	c #9B005E",
"y@	c #A1005D",
"z@	c #A6005D",
"A@	c #A9005E",
"B@	c #AB005F",
"C@	c #AA005F",
"D@	c #A60061",
"E@	c #A20062",
"F@	c #C2036F",
"G@	c #BA0068",
"H@	c #B40065",
"I@	c #AC0063",
"J@	c #A10060",
"K@	c #970058",
"L@	c #8F004E",
"M@	c #80004B",
"N@	c #950054",
"O@	c #A90057",
"P@	c #B60268",
"Q@	c #BA056C",
"R@	c #BF0B6E",
"S@	c #C41270",
"T@	c #C81873",
"U@	c #CC1E75",
"V@	c #CE2176",
"W@	c #910052",
"X@	c #990059",
"Y@	c #9E0060",
"Z@	c #A30061",
"`@	c #A30062",
" #	c #A40061",
".#	c #C60371",
"+#	c #C3026E",
"@#	c #BF016A",
"##	c #BA0066",
"$#	c #A80062",
"%#	c #9D005F",
"&#	c #940058",
"*#	c #910050",
"=#	c #84004D",
"-#	c #AF005C",
";#	c #BA026A",
">#	c #BD066E",
",#	c #C00B70",
"'#	c #C31172",
")#	c #C71673",
"!#	c #CA1A74",
"~#	c #CC1C74",
"{#	c #9B0057",
"]#	c #A0005B",
"^#	c #A2005D",
"/#	c #A3005D",
"(#	c #C90473",
"_#	c #C60270",
":#	c #BF0069",
"<#	c #B80064",
"[#	c #AF0062",
"}#	c #A40060",
"|#	c #99005E",
"1#	c #940059",
"2#	c #940052",
"3#	c #88004F",
"4#	c #82004B",
"5#	c #B90167",
"6#	c #BC036C",
"7#	c #BE0670",
"8#	c #C00A72",
"9#	c #C20E73",
"0#	c #C51273",
"a#	c #C81473",
"b#	c #CB1673",
"c#	c #CD1673",
"d#	c #CC0675",
"e#	c #C80272",
"f#	c #C6016F",
"g#	c #C2006B",
"h#	c #BD0067",
"i#	c #B50063",
"j#	c #AB0060",
"k#	c #9F005E",
"l#	c #96005C",
"m#	c #96005A",
"n#	c #960053",
"o#	c #890050",
"p#	c #A30058",
"q#	c #BC026E",
"r#	c #BD0471",
"s#	c #C10A72",
"t#	c #C40C72",
"u#	c #C70E72",
"v#	c #C90F72",
"w#	c #CB0F73",
"x#	c #CC0E74",
"y#	c #CC0876",
"z#	c #CB0575",
"A#	c #CA0374",
"B#	c #C70170",
"C#	c #C4006D",
"D#	c #C00069",
"E#	c #BA0065",
"F#	c #B10061",
"G#	c #A6005E",
"H#	c #9C005C",
"I#	c #98005D",
"J#	c #98005B",
"K#	c #970053",
"L#	c #7C0047",
"M#	c #B4005E",
"N#	c #BB026F",
"O#	c #BE0471",
"P#	c #C10670",
"Q#	c #C40771",
"R#	c #C60771",
"S#	c #CA0773",
"T#	c #CA0274",
"U#	c #C90172",
"V#	c #C1006A",
"W#	c #BC0067",
"X#	c #A1005C",
"Y#	c #9C005D",
"Z#	c #9A005A",
"`#	c #6E003F",
" $	c #880050",
".$	c #9F0059",
"+$	c #AD005B",
"@$	c #B70066",
"#$	c #B8006B",
"$$	c #BC016E",
"%$	c #C1036E",
"&$	c #C4036F",
"*$	c #C60370",
"=$	c #C70371",
"-$	c #C80172",
";$	c #C70171",
">$	c #C6006F",
",$	c #C1006B",
"'$	c #BD0068",
")$	c #9D005E",
"!$	c #9B005F",
"~$	c #9C0059",
"{$	c #750044",
"]$	c #AD005C",
"^$	c #B20061",
"/$	c #B50066",
"($	c #B9006A",
"_$	c #BB016A",
":$	c #BE016B",
"<$	c #C1016C",
"[$	c #C4016E",
"}$	c #C0006A",
"|$	c #B60065",
"1$	c #A1005E",
"2$	c #9D0060",
"3$	c #63003A",
"4$	c #7E004A",
"5$	c #940055",
"6$	c #AE0062",
"7$	c #B10065",
"8$	c #B40066",
"9$	c #BF0068",
"0$	c #BF006A",
"a$	c #A5005E",
"b$	c #A0005F",
"c$	c #9E0061",
"d$	c #9F005C",
"e$	c #9A0056",
"f$	c #68003E",
"g$	c #950053",
"h$	c #AF0063",
"i$	c #B90066",
"j$	c #B10063",
"k$	c #AD0060",
"l$	c #A7005E",
"m$	c #A3005F",
"n$	c #A00061",
"o$	c #9F0058",
"p$	c #83004B",
"q$	c #920051",
"r$	c #9E005E",
"s$	c #A10061",
"t$	c #A80060",
"u$	c #AE0060",
"v$	c #B00061",
"w$	c #AE0061",
"x$	c #A10062",
"y$	c #A1005A",
"z$	c #750047",
"A$	c #85004B",
"B$	c #8F004F",
"C$	c #940056",
"D$	c #96005B",
"E$	c #99005D",
"F$	c #9C005E",
"G$	c #A4005D",
"H$	c #AC005F",
"I$	c #A7005F",
"J$	c #89004D",
"K$	c #95005A",
"L$	c #96005D",
"M$	c #A20063",
"N$	c #A3005B",
"O$	c #7D004B",
"P$	c #8A004F",
"Q$	c #940051",
"R$	c #9A005F",
"S$	c #9C005F",
"T$	c #A20060",
"U$	c #A20061",
"V$	c #A30063",
"W$	c #A4005F",
"X$	c #A3005A",
"Y$	c #920052",
"Z$	c #990054",
"`$	c #9B0058",
" %	c #A00062",
".%	c #A4005E",
"+%	c #9A0055",
"@%	c #A2005A",
"                        . + @ # $ % & *                         ",
"                  = - ; > ,         ' ) ! ~ {                   ",
"              ] ^ / ( _                 : < [ } |               ",
"            1 2 ( 3     - 4 5 6 7 8 9 0     a b c d             ",
"          e > f g     h i j k l m n o p q     r s t u           ",
"        @ v w x     y z A B C D E F G H I J     K L M N         ",
"      O P Q R S   T U V W X Y Z `  ...+.@.#.$.  %.I &.*.=.      ",
"    -.;.>.,.'.    ).!.~.{.].^./.(._.:.<.[.}.|.    1.2.3.N 4.    ",
"    % 5.6.7.8.  9.0.a.b.c.d.e.f.g.h.i.j.k.l.m.n.  o.p.q.r.s.    ",
"  * t.u.v.m w.  x.H y.z.A.B.C.D.E.F.G.H.I.J.K.L.  M.N.O.P.Q.R.  ",
"  * S.T.U.V.W.  q.X.Y.Z.`. +.+++@+#+$+%+&+*+=+-+  ;+>+,+'+)+!+  ",
"  ~+{+]+G ^+/+  (+1._+:+<+[+}+|+1+2+3+4+5+6+7+8+  9+0+a+b+r.c+  ",
"d+e+f+g+h+i+j+  k+l+m+n+o+p+q+r+s+t+u+v+>+w+x+y+  z+A+B+C+D+E+F+",
"G+H+I+J+K+L+w.    M+N+9+O+P+Q+R+S+T+U+V+W+X+Y+    Z+`+ @.@+@@@#@",
"$@b %@&@*@=@-@;@  >@,@'@A+)@' !@U+~@{@]@^@/@(@  _@:@<@[@}@|@1@2@",
"m.3@4@5@6@7@8@9@    0@a@b@c@d@>+e@f@g@h@w+i@    j@k@J.l@m@n@o@p@",
"+@q@K r@s@Y.t@u@:.    v@w@x@y@z@A@B@C@D@E@    F@S.G@H@I@J@K@L@M@",
"N@O@I P@Q@R@S@T@U@V@    W@X@x@Y@J@Z@`@ #    .#+#@###]@$#%#&#*#=#",
"0@M -#1.;#>#,#'#)#!#~#      {#]#^#/#      (#_#v+:#<#[#}#|#1#2#3#",
"4#*.b+p.5#6#7#8#9#0#a#b#c#            d#S+e#f#g#h#i#j#k#l#m#n#o#",
"  N p#2.N.M.q#r#n+s#t#u#v#w#x#    y#z#A#2 B#C#D#E#F#G#H#I#J#K#  ",
"  L#r.b+M#<#k@N#I.O#P#Q#R#Q+S#    A#T#U#B#U+V#W#i#B@X#Y#|#Z#n#  ",
"  `# $.$+$a+@$#$:@$$j@%$&$*$=$    -$;$>$C#,$'$l.W+z@X#)$!$~$N@  ",
"    {$)+m.]$^$/$<@($_$:$<$v+[$    U+C#~@}$5+|$g@C@z@1$2$%#|@    ",
"    3$4$5$m..@6$7$8$@$##W#9$D#    V#0${@0+H@g@h@A@a$b$c$d$e$    ",
"      f$E+g$P.w+$#I@h$]@i#<#E#    i$@$f@j$[#k$B@l$m$n$i@o$      ",
"        #@p$q$n@r$s$ #t$j#u$v$    g@W+w$w$k$B@}@}#x$x$y$        ",
"          z$A$B$C$D$E$F$X+a@G$    C@B@H$B@C@I$ #E@E@a@          ",
"            c+J$*#C$K$L$E$Y#X+    G#l$I$I$m@`@M$`@N$            ",
"              O$P$Q$r.J#|#R$S$    T$T$U$E@M$V$W$X$              ",
"                  o#Y$Z$`$H#%#     % %E@Z@.%K.                  ",
"                        N@+%|@    y$@%@%                        "};
